<?xml version="1.0" encoding="utf-8"?>
<!-- Generator: Adobe Illustrator 23.0.6, SVG Export Plug-In . SVG Version: 6.00 Build 0)  -->
<svg version="1.1" id="Layer_1" xmlns="http://www.w3.org/2000/svg" xmlns:xlink="http://www.w3.org/1999/xlink" x="0px" y="0px"
	 viewBox="0 0 38.7 39.5" style="enable-background:new 0 0 38.7 39.5;" xml:space="preserve">
<style type="text/css">
	.st0{fill:#FFFFFF;stroke:#FFFFFF;stroke-miterlimit:10;}
</style>
<path class="st0" d="M38.3,35.2l-1.9-1.9V5.3c0-1.2-1-2.2-2.2-2.2s-2.2,1-2.2,2.2v23.5l-5.2-5.2V5.3c0-1.2-1-2.2-2.2-2.2
	c-1.2,0-2.2,1-2.2,2.2v13.9L17.1,14V5.3c0-1.2-1-2.2-2.2-2.2s-2.2,1-2.2,2.2v4.3L6.9,3.7l0,0L4.3,1.2C3.4,0.3,2,0.3,1.2,1.2
	s-0.9,2.3,0,3.1l1.9,1.9v27.9c0,1.2,1,2.2,2.2,2.2s2.2-1,2.2-2.2V10.7l5.2,5.2v18.3c0,1.2,1,2.2,2.2,2.2s2.2-1,2.2-2.2V20.3l5.2,5.2
	v8.7c0,1.2,1,2.2,2.2,2.2c1.2,0,2.2-1,2.2-2.2v-4.3l5.8,5.8c0,0,0,0,0,0l2.6,2.6c0.4,0.4,1,0.7,1.6,0.7c0.6,0,1.1-0.2,1.6-0.7"/>
</svg>
